<svg width="71" height="70" viewBox="0 0 71 70" fill="none" xmlns="http://www.w3.org/2000/svg">
<g filter="url(#filter0_i_1_1738)">
<g clip-path="url(#clip0_1_1738)">
<path d="M50.9143 -0.000230789H20.0859C9.26897 -0.000230789 0.500092 8.76865 0.500092 19.5856V50.4139C0.500092 61.2309 9.26897 69.9998 20.0859 69.9998H50.9143C61.7312 69.9998 70.5001 61.2309 70.5001 50.4139V19.5856C70.5001 8.76865 61.7312 -0.000230789 50.9143 -0.000230789Z" fill="#9C8BF9"/>
<path d="M5.63674 71.3958L21.859 5.25467L33.0078 7.98911L31.0568 15.9436L31.7145 16.1049C32.5858 15.0791 33.7152 14.0391 35.1025 12.985C36.495 11.9099 38.2147 11.1254 40.2615 10.6314C42.3134 10.1165 44.7486 10.2047 47.5672 10.896C51.2834 11.8075 54.4013 13.5793 56.9209 16.2115C59.4664 18.8279 61.1629 22.1988 62.0103 26.3243C62.8837 30.4341 62.6649 35.1613 61.354 40.5061C60.0585 45.7882 58.0911 50.0644 55.4519 53.3348C52.8127 56.6051 49.7622 58.845 46.3004 60.0544C42.8387 61.2638 39.2183 61.4051 35.4394 60.4782C32.6836 59.8023 30.5101 58.7823 28.919 57.4182C27.328 56.054 26.1379 54.5891 25.3489 53.0232C24.5858 51.4416 24.0449 49.992 23.7262 48.6744L23.2565 48.5592L16.9734 74.1763L5.63674 71.3958ZM27.0775 32.0327C26.3145 35.1435 26.0847 37.9756 26.388 40.529C26.7123 43.0875 27.5482 45.2293 28.8958 46.9542C30.2695 48.6634 32.1567 49.8125 34.5577 50.4014C37.0631 51.0158 39.3251 50.8624 41.344 49.941C43.3679 48.9987 45.0947 47.4633 46.5242 45.335C47.9797 43.1908 49.0761 40.6156 49.8135 37.6091C50.5457 34.6236 50.7681 31.8671 50.4805 29.3398C50.1929 26.8124 49.3648 24.6836 47.9963 22.9535C46.6278 21.2235 44.6804 20.0486 42.1542 19.429C39.7324 18.835 37.5197 18.9674 35.5163 19.8262C33.5128 20.685 31.791 22.1551 30.3508 24.2366C28.9316 26.3232 27.8405 28.9219 27.0775 32.0327Z" fill="white"/>
<circle cx="32.4004" cy="27.9597" r="0.807" fill="white"/>
<circle cx="35.486" cy="43.8624" r="1.04435" fill="white"/>
<circle cx="45.4548" cy="33.3713" r="1.04435" fill="white"/>
<circle cx="37.0525" cy="33.3713" r="1.04435" fill="white"/>
<circle cx="39.7109" cy="26.1084" r="1.04435" fill="white"/>
<circle cx="44.4104" cy="27.1527" r="1.04435" fill="white"/>
<circle cx="44.4104" cy="27.1527" r="1.04435" fill="white"/>
<circle cx="43.2237" cy="38.0235" r="1.04435" fill="white"/>
<circle cx="41.135" cy="43.8624" r="1.04435" fill="white"/>
<circle cx="30.5491" cy="38.0235" r="1.04435" fill="white"/>
</g>
</g>
<defs>
<filter id="filter0_i_1_1738" x="0.5" y="0" width="70" height="71.2727" filterUnits="userSpaceOnUse" color-interpolation-filters="sRGB">
<feFlood flood-opacity="0" result="BackgroundImageFix"/>
<feBlend mode="normal" in="SourceGraphic" in2="BackgroundImageFix" result="shape"/>
<feColorMatrix in="SourceAlpha" type="matrix" values="0 0 0 0 0 0 0 0 0 0 0 0 0 0 0 0 0 0 127 0" result="hardAlpha"/>
<feOffset dy="1.27273"/>
<feGaussianBlur stdDeviation="18.0409"/>
<feComposite in2="hardAlpha" operator="arithmetic" k2="-1" k3="1"/>
<feColorMatrix type="matrix" values="0 0 0 0 0.996078 0 0 0 0 0.996078 0 0 0 0 0.996078 0 0 0 0.12 0"/>
<feBlend mode="normal" in2="shape" result="effect1_innerShadow_1_1738"/>
</filter>
<clipPath id="clip0_1_1738">
<rect x="0.5" width="70" height="70" rx="35" fill="white"/>
</clipPath>
</defs>
</svg>
